<svg xmlns="http://www.w3.org/2000/svg" viewBox="0 0 180 50" fill="none">
  <!-- Leaf circle icon -->
  <circle cx="25" cy="25" r="22" fill="url(#grad1)" />
  <!-- Leaf shape -->
  <path d="M25 12 C18 18, 14 28, 25 38 C36 28, 32 18, 25 12Z" fill="#fff" opacity="0.95"/>
  <path d="M25 18 C25 18, 25 30, 25 36" stroke="#00c853" stroke-width="1.8" stroke-linecap="round"/>
  <path d="M21 24 C21 24, 25 28, 25 28" stroke="#00c853" stroke-width="1.5" stroke-linecap="round"/>
  <path d="M29 21 C29 21, 25 26, 25 26" stroke="#00c853" stroke-width="1.5" stroke-linecap="round"/>
  <!-- Recycle arrows around leaf -->
  <path d="M12 32 A18 18 0 0 1 15 11" stroke="rgba(255,255,255,0.3)" stroke-width="1.5" fill="none" stroke-linecap="round"/>
  <path d="M35 11 A18 18 0 0 1 38 32" stroke="rgba(255,255,255,0.3)" stroke-width="1.5" fill="none" stroke-linecap="round"/>
  <!-- Text: EcoFi -->
  <text x="56" y="22" font-family="'Space Grotesk','Inter',Arial,sans-serif" font-size="22" font-weight="700" fill="#ffffff">Eco</text>
  <text x="102" y="22" font-family="'Space Grotesk','Inter',Arial,sans-serif" font-size="22" font-weight="700" fill="url(#grad1)">Fi</text>
  <!-- Tagline -->
  <text x="56" y="38" font-family="'Inter',Arial,sans-serif" font-size="8.5" font-weight="400" fill="#9ca3af" letter-spacing="2.5">SMART WASTE</text>
  <!-- Gradients -->
  <defs>
    <linearGradient id="grad1" x1="0%" y1="0%" x2="100%" y2="100%">
      <stop offset="0%" style="stop-color:#00c853"/>
      <stop offset="100%" style="stop-color:#00e5ff"/>
    </linearGradient>
  </defs>
</svg>
